<?xml version="1.0" encoding="UTF-8"?>
<svg id="Layer_1" xmlns="http://www.w3.org/2000/svg" version="1.1" viewBox="0 0 595.28 595.28">
  <!-- Generator: Adobe Illustrator 29.8.1, SVG Export Plug-In . SVG Version: 2.1.1 Build 2)  -->
  <path d="M304.55,287.71c8.24-3.06,17.48-6.85,27.73-11.35,10.25-4.5,20.16-9.48,29.74-14.94,9.58-5.46,18.15-11.16,25.72-17.1,7.57-5.94,12.98-11.88,16.24-17.82,2.68-4.79,3.3-8.86,1.87-12.21-1.44-3.35-3.98-5.12-7.62-5.32-4.02-.19-7.67,1.25-10.92,4.31-3.26,3.07-6.08,6.75-8.48,11.06-2.4,4.31-4.45,8.81-6.18,13.51-1.73,4.7-3.16,8.58-4.31,11.64-.96,2.11-2.4,3.79-4.31,5.03-1.92,1.25-3.79,1.97-5.6,2.16-1.82.19-3.35-.1-4.6-.86-1.25-.77-1.58-2.11-1-4.03,1.72-5.17,3.83-11.11,6.32-17.82,2.49-6.7,5.55-13.03,9.2-18.96,3.64-5.94,7.95-10.92,12.93-14.95,4.98-4.02,10.82-6.03,17.53-6.03,4.02,0,7.71,1.01,11.06,3.02,3.35,2.01,5.94,4.74,7.76,8.19,1.82,3.45,2.73,7.43,2.73,11.93s-1.25,9.25-3.74,14.23c-2.3,4.6-5.32,9-9.05,13.22-3.74,4.22-7.81,8.15-12.21,11.78-4.41,3.64-8.91,6.95-13.51,9.91-4.6,2.97-8.82,5.6-12.64,7.9-2.88,1.54-5.8,4.13-8.77,7.76-2.97,3.64-4.94,7.09-5.89,10.34-2.11,7.09-4.5,15.43-7.18,25-2.69,9.58-5.08,19.45-7.18,29.6-1.34,6.13-2.44,12.17-3.31,18.11-.86,5.94-1.49,11.59-1.87,16.95-.39,5.37-.39,10.26,0,14.66.38,4.41,1.24,8.14,2.59,11.2.58,1.92.33,3.69-.72,5.32-1.05,1.63-2.49,2.78-4.31,3.45-1.82.67-3.74.58-5.75-.29-2.01-.86-3.59-2.83-4.74-5.89-2.3-8.05-3.07-17.63-2.3-28.74.76-11.11,2.3-22.51,4.6-34.2,1.91-9.58,4.03-18.54,6.32-26.87,2.3-8.33,4.5-15.76,6.61-22.27.76-2.3.19-4.07-1.72-5.32-1.92-1.25-3.74-1.58-5.46-1.01-8.05,3.26-16.43,6.61-25.15,10.06-8.72,3.45-17.43,6.95-26.15,10.49-8.72,3.55-17.1,7.14-25.14,10.78-8.05,3.64-15.33,7.28-21.84,10.92-10.92,6.13-19.74,12.65-26.44,19.54-6.71,6.9-11.64,13.41-14.8,19.54-3.16,6.13-4.7,11.64-4.6,16.52.09,4.88,1.48,8.38,4.17,10.49,3.06,2.49,7.56,3.12,13.51,1.87,5.94-1.25,12.5-4.79,19.68-10.63,7.18-5.84,14.61-14.08,22.27-24.71,7.66-10.63,14.66-24.19,20.98-40.67.76-2.1,2.2-3.73,4.31-4.88,2.11-1.15,4.12-1.73,6.04-1.73s3.45.63,4.6,1.87c1.15,1.25,1.24,3.21.29,5.89-7.47,20.5-16,37.36-25.58,50.58-9.58,13.22-19.25,23.18-29.03,29.89-9.77,6.71-19.07,10.4-27.88,11.07-8.82.67-16.09-1.39-21.84-6.18-4.41-3.64-7.14-8.95-8.19-15.95-1.05-6.99.24-14.75,3.88-23.28,3.64-8.52,9.82-17.43,18.53-26.73,8.72-9.29,20.55-18.15,35.49-26.58,6.13-3.45,12.16-6.37,18.11-8.77,5.94-2.39,11.68-5.03,17.24-7.9,4.79-2.68,8.67-6.37,11.64-11.06,2.97-4.69,4.74-8.38,5.31-11.06,1.34-4.79,2.54-9.2,3.59-13.22,1.05-4.02,2.11-7.95,3.16-11.78,1.05-3.83,2.15-7.76,3.3-11.78,1.15-4.02,2.49-8.33,4.02-12.93,1.53-4.41,1.68-7.57.43-9.48-1.25-1.91-4.45-3.06-9.63-3.45-7.67-.76-15.57-2.25-23.71-4.45-8.15-2.2-15.66-3.59-22.56-4.17-8.62-.58-15.95,1.58-21.98,6.47-6.04,4.88-10.01,11.54-11.93,19.97-1.15,5.56-.86,10.49.86,14.8,1.73,4.31,4.31,7.57,7.76,9.77,3.45,2.2,7.52,3.11,12.21,2.73,4.69-.38,9.44-2.4,14.23-6.04,1.73-1.15,3.4-1.53,5.03-1.15,1.62.38,2.92,1.2,3.88,2.44.96,1.25,1.39,2.73,1.29,4.45-.1,1.73-1.01,3.26-2.73,4.6-6.9,5.37-13.99,8.24-21.27,8.62-7.28.39-13.79-1.05-19.54-4.31-5.75-3.26-10.2-8.14-13.36-14.66-3.16-6.51-3.98-13.98-2.44-22.41.96-5.93,2.92-11.3,5.89-16.09,2.97-4.79,6.61-8.86,10.92-12.21,4.31-3.35,9.15-5.84,14.51-7.47,5.36-1.62,11.02-2.35,16.96-2.15,5.36.19,10.78.86,16.24,2.01,5.46,1.15,10.87,2.25,16.24,3.31,5.36,1.05,10.63,1.77,15.81,2.15,5.17.38,10.15-.1,14.94-1.44,4.4-1.34,8.09-3.3,11.06-5.89,2.97-2.58,6.37-4.74,10.2-6.46,2.3-1.15,4.31-1.39,6.03-.72,1.73.68,3.06,1.73,4.02,3.16.96,1.44,1.34,3.07,1.15,4.88-.19,1.83-.96,3.3-2.3,4.45-4.02,3.26-7.9,6.56-11.64,9.91-3.74,3.35-6.47,7.52-8.19,12.5-4.02,9.01-7.09,17.92-9.19,26.73-2.11,8.81-4.5,17.92-7.19,27.3-.57,2.88-.05,5.22,1.58,7.04,1.62,1.82,4.07,2.25,7.33,1.29Z"/>
  <g>
    <path d="M72.14,254.09l-.16.75-.19.65-.33.85-.24,1.1-.36.75-.23.41-.26.54-.5.72-.64.97-.7.77-.33.39-.43.41-.44.5-.41.33-.37.38-.73.48-.85.59-.61.37-2.31,1.15-1.37.34-1.12.31-1.18.34-1.06.04-.64.09-1.14-.02-.95-.03-.56-.08-.8-.04-.65-.1-.77-.21-1.33-.29-.84-.33-.8-.27-1.06-.6-.7-.29-.97-.58-1.09-.7-.55-.54-.91-.66-1.18-1.14-.89-.98-.31-.53-.34-.4-.41-.55-.36-.54-.1-.39-.4-.6-.42-1.33-.31-1.17-.32-1.36-.07-.98-.15-.63-.15-1.27.06-1.14.02-.73.28-1.04.29-1.55.33-1.03.11-.48.31-.76.42-.83.26-.54.27-.35.37-.61.37-.56.46-.55.57-.61.71-.81,1.1-1.04.98-.75,1.12-.72,1.61-.8,1.02-.51.52-.21.6-.14.52-.21.91-.21,1.15-.21.97-.06.78-.06h.43s.63-.04.63-.04l1.19.03.75.07.64.14.74.12.75.26,1.17.35.71.25.72.2.89.33.52.25.74.35,1.01.64.93.57.78.58.48.43.4.32.38.45.34.4.35.35.28.25.26.33.39.6.33.67.32.49.21.37.23.47.24.42.17.5.21.37.25.61.31.99.38,1.1.15.82.07.52.12.99.08,1.17-.07.95-.28,1.27-.32.99ZM67.18,251.43l.08-.58v-.27s-.07-.25-.07-.25l-.05-.19.03-.59-.15-.63-.07-.57-.27-.93-.4-1.01-.62-1.33-.58-.82-.23-.28-.47-.47-.72-.85-1.17-1.18-.95-.49-.83-.37-.98-.35-1.21-.36-.62-.23-1.21-.17-1.71-.06-1.12.08-1.06.23-.83.05-.56.15-.81.19-.8.38-.48.21-.61.37-1.56,1.22-1.18,1.21-.55.75-.47.86-.17.33-.31.53-.35.71-.53,2.41v.69s-.09.81-.09.81l.1,1.08.32,1.59.92,2.78.4.55.38.45.17.31.66.7.69.57.27.29.46.29.52.44.67.42.68.38.62.23.95.44,1.12.34.56.08.65.1.75.08.69.15h.24s.53-.01.53-.01h.86s.72.02.72.02l1.12-.3,1.88-.69,1.28-.59.44-.23.79-.56.79-.75.25-.27.13-.15.63-.69.66-.82.39-.7.5-1.18.46-1.19.28-1.04.14-1.3Z"/>
    <path d="M80.03,224.55l-.61.62-.45.11-.65-.03-.98-.45-1.48-.57-1.32-.6-3.76-1.56-.94-.29-.8-.38-.62-.21-1.06-.49-2.33-.97-1.65-.78-1.22-.36-1.18-.58-1.36-.52-1.49-.67-1.43-.59-.88-.32-.57-.33-.66-.23-2.38-.99-.71-.24-.5-.26-.51-.36-.43-.42-.27-.7.05-.61.43-1.04.77-1.73.18-.56.44-.94.39-1.06.28-.91.42-.89.31-.75.15-.62.44-.94.34-.93.29-.71.9-2.4.26-.62.06-.27,1.16-2.54.35-.83.64-1.29.39-.57.47-.39.44-.21.54-.07.93.19,1.04.43.79.42.46.48.07.56-.22.89-1.43,3.45-.47,1.02-.43,1.04-1.04,2.63-.29.95-.52,1.25-.15.48-1.28,3.07-.45,1.32v.63s.98.56.98.56l1.27.48.5.26,1.99.82.84.3.93.19.54-.07.28-.18.45-.84.49-1.06.22-.64.98-2.12.25-.72.26-.62.12-.54,1.47-3.53.49-.82.26-.28.46-.25.88-.17.99.17.86.36,1.03.82.27.7-.14,1.06-.44,1.08-.29.81-1.29,3.36-.44,1.18-.34.69-.2.6-.27.52-.21.74-.3.85-.15.72.02.54.42.57.44.28,1.51.63.85.26.82.34.49.15,1.05.39,1.44.55,1.3.64,2.16.9.44.28.49.4.24.64.05.6-.25.97-.3.85-.39.81Z"/>
    <path d="M95.65,190.8l-.7.51-.46.03-.64-.13-.89-.6-1.37-.8-1.21-.8-3.45-2.14-.88-.44-.73-.51-.58-.31-.97-.66-2.14-1.33-1.5-1.04-1.14-.55-1.06-.76-1.26-.73-1.37-.9-1.31-.81-.81-.45-.51-.42-.62-.33-2.19-1.35-.66-.36-.46-.34-.44-.43-.36-.49-.15-.73.15-.6.59-.95,1.04-1.58.27-.52.59-.85.55-.98.42-.85.56-.82.42-.69.25-.58.58-.85.48-.86.4-.65,1.27-2.23.36-.57.1-.25,1.55-2.32.48-.76.84-1.18.47-.5.52-.31.47-.13.54.02.89.34.95.59.71.54.37.55-.02.57-.35.84-1.97,3.17-.63.93-.59.96-1.45,2.43-.44.89-.71,1.15-.22.44-1.76,2.83-.66,1.23-.11.62.88.71,1.18.68.45.33,1.82,1.13.78.43.89.34.54.02.3-.13.58-.75.66-.97.31-.6,1.31-1.93.37-.68.35-.57.21-.51,2.02-3.25.61-.73.31-.23.49-.17.9-.03.95.33.79.5.88.97.15.73-.31,1.02-.62.99-.41.75-1.82,3.11-.62,1.09-.44.62-.29.56-.35.47-.32.7-.43.79-.26.68-.06.55.33.62.39.35,1.39.86.8.39.75.47.46.23.98.55,1.33.77,1.19.84,1.98,1.23.39.35.42.47.14.67-.05.61-.4.92-.44.79-.51.74Z"/>
    <path d="M117.01,159.43l-.72.52-.91.08-.62-.27-.8-.71-1.45-1.18-.84-.74-.64-.4-.81-.71-.96-.67-.44-.42-.37-.36-.7-.4-1.12-.92-.81-.77-.78-.52-.57-.63-.46-.32-.65-.53-.74-.42-.41-.39-.58-.47-1.1-.72-.64-.47-1-.99-1.05-.85-.95-.83-.75-.56-3.48-2.83-.76-.56-.46-.61-.19-.44-.05-.39.04-.72.47-.72.51-.63.63-.7.63-.41h.55s.7.09.7.09l.68.5.94.7.62.5.37.36.67.43.88.77.87.71.67.43.88.77,1.09.95.73.59.54.38.91.74.83.62.95.83,1.73,1.35.96.9.47.38.36.23,2.03,1.65.61.44,1.89,1.53.45.25,1.71,1.39.81.71.87,1,.26.5.08.35-.09.33-.26.84-.6.73-.19.31-.41.42Z"/>
    <path d="M140.85,135.4l-.59.62-.78.68-.75.45-1.8,1.18-.58.23-1.4.61-.49.14-.55.13-.49.14-.36.02-.68.19-.68.06-.62.13-.71-.04-.29.02h-.68s-.75-.07-.75-.07l-.94-.08-.91-.18-.48-.06-.58-.1-.58-.16-.87-.27-.87-.33-.61-.26-.77-.36-.87-.33-.51-.35-.61-.32-.44-.41-.42-.25-.58-.55-.58-.42-.77-.75-.58-.55-.96-1.02-.41-.77-.29-.44-.57-1-.73-1.3-.41-1.09-.32-.73-.19-.59-.18-.79-.16-.37-.03-.16-.09-.62-.12-1.04-.12-1.11-.05-.98v-.84s.15-1.16.15-1.16l.28-1.35.21-1.09.47-1.47.33-.76.33-.63.36-.67.33-.5.7-1.1.43-.6.26-.31.62-.65.63-.71.72-.68.81-.58.33-.18.72-.55.88-.44,1.24-.58,1.2-.49.36-.08.91-.21,1.1-.33,1.2-.1,1.07-.11.81-.06,1,.02,1,.15.97.24.58.29.48.58.22.82.09.75v1.04s-.21.64-.21.64l-.49.59-.59.36-.68.06-1.04-.05-.97.02-.84-.11-.91.09-.62.07-.88.25-.84.22-.69.39-1.04.53-.72.42-.72.68-.88.64-.72.94-.49.66-.46.75-.43.79-.37.99-.37,1.25-.17.67-.04.61-.08.91v.78s.08.81.08.81l.15,1.21.53,1.55.63,1.53.41.64.38.54.6.77.73.79.93.73.93.79.71.42.64.49.74.39.45.09.52.22.48.25.19.08.55.06.97.24.71.1.58.03.81-.06.97-.02.62-.13,1.04-.27.97-.27.59-.29.75-.45,1.11-.72.62-.52,1.05-1.12.79-1,.56-.85.46-.89.3-.67.23-.8.21-1.09.14-1.03.02-1.88-.02-.68.27-.7.56-.65,1.33-.55,1.68.15.71.36.35.44.38.73.21.95v.78s.01,1.14.01,1.14l-.52,2.6-.27.83-.07.45-1,2.54-.33.5-.36.6-.33.5-.33.57-.89.96-.59.75-.72.55Z"/>
    <path d="M162.25,116.6l-.83.31-.89-.16-.53-.43-.59-.9-1.09-1.52-.62-.94-.51-.56-.59-.9-.75-.9-.32-.52-.26-.44-.57-.57-.84-1.18-.58-.97-.62-.71-.38-.77-.36-.43-.49-.68-.6-.61-.29-.48-.44-.61-.87-.99-.5-.62-.71-1.22-.78-1.1-.7-1.05-.58-.73-2.61-3.65-.58-.74-.29-.71-.06-.47.06-.39.23-.68.64-.57.66-.47.8-.51.72-.23.54.13.64.29.53.66.71.93.46.65.26.44.54.6.64.98.65.91.54.6.64.97.81,1.21.54.76.42.51.68.95.63.81.7,1.06,1.31,1.76.69,1.12.35.5.28.31,1.52,2.13.47.58,1.41,1.98.37.37,1.28,1.79.59.9.58,1.19.12.55-.02.36-.18.3-.47.74-.77.55-.26.25-.5.3Z"/>
    <path d="M178.66,106.14l-.58.15h-.91s-.8-.15-.8-.15l-.66-.29-.42-.41-.39-.74-.04-.93-.09-.75-.04-.56-.03-.62-.1-1.06-.11-.79-.08-1.97-.08-1.12-.14-1.14-.04-1.62-.11-1.16-.03-.73-.05-.77-.05-.87-.23-1.78.02-1.12-.16-1.07-.1-1.54-.17-1.86-.08-1.01-.23-1.89-.06-1.18-.13-.73v-.89s-.04-.73-.04-.73l-.1-.37-.06-.5-.11-.68.06-.56-.02-.62v-.58s-.02-.42-.02-.42l.02-.64.26-.67.89-.73,1.07-.57.58-.15.66.18.56.39.5.37.9.74.88.7,1.56,1.13.59.53.56.39.63.62.71.58.5.47.58.43.98.8.92.68.67.6.54.35.4.37.61.47.7.47.59.54.61.58.46.29.48.43.79.53.75.66,1.19,1.01,1.46,1.03.92.78.61.47.35.29.44.46,1,.73.77.6.37.22.77.6.73.72.57.6.32.99-.15.77-.58.83-1.19,1.11-1.03.28-.53-.14-.62-.2-.41-.47-.77-.6-.94-.72-.48-.33-.8-.63-.94-.72-.36-.29-.54-.35-.71-.47-.56-.39-.55-.08-.84.34-.97.57-4.65,2.46-1.33.65-.99.63-.58.25-.63.44-.62.38-.36.56-.04.5.08,2.07v.96s.12.52.12.52l.02.52.07.7.06.87.13.72-.05.87-.08,1-.24.6-.55.5-.7.31ZM186.14,86.12l.02-.06.1-.1-.04-.46-.51-.68-.57-.49-1.73-1.15-.81-.57-1.22-1.05-.73-.62-.67-.6-1-.84-.7-.16.03.83.23,1.2.15,1.93.07,1.39.19,1.22.07.91.04,1.03.14.35.12.41.22.41.43.14.7-.32.72-.38,1.16-.51,2.71-1.33.89-.52Z"/>
    <path d="M215.6,87.69l-.66-.13-.5-.52-.48-.73-.35-.92-.28-.99-.34-.87-.14-.69-.43-1.14-1.35-4.04-.25-.46-.37-.96-.91-2.75-.37-1.26-.28-.84-.24-1-.28-.99-.3-1.18-.47-1.13-.23-.96-.68-2.04-.29-.59-.43-1.29-.41-1.09-.81-2.44-.07-.77.02-.35.11-.38.24-.27.47-.3.54-.23.58-.1.81-.27.67-.27.53.02.35.18.35.33.19.28.28.69.34.87.22.67.41.95.23.71.21.91.21.77.93,2.79.37.96.37.81.31.79.48,1.32.37.96.06.33.21.48.33.83.24.86.13.4.09.41.15.3.21.92.27.8.46,1.52.2,1.02.34,1.02.29.74.48,1.02.12.36.17.39.38.27.24.02,1.88-.63.95-.27.37-.17.44-.1.7-.18.87-.24.9-.3.64-.36.79-.31.77-.26.66-.17.85-.28.54-.08.77-.26.98-.47,1.02-.34.66-.17.6-.2.6-.05.57.15.66.42.19.28.67,1.99.06.47-.02.35-.24.42-.59.64-.57.29-.74.2-2.22.74-.68.38-.57.14-2.43.81-.66.17-2.49.93-8.23,2.75h-.71Z"/>
    <path d="M269.59,74.47l-.97-.36-.35-.49-.22-.64-.11-.93v-.75s-.12-.98-.12-.98l-.08-1.26-.1-.7v-.75s-.14-1.35-.14-1.35l-.05-.79.02-1.69-.14-2.05-.09-.7-.08-.46-.07-1.08-.03-1.12-.09-1.31-.1-.74-.09-1.26-.12-1.16-.23-3.36-.16-1.67-.06-.94-.02-1.03-.12-1.12-.09-1.26v-1.41s.27-.58.27-.58l.21-.25.64-.51,1.11-.22.81-.05.64.1.5.11.33.26.3.4.16.37.13.55.14.74.09,1.31.14,1.44.07.98v.89s.16,2.1.16,2.1l.1.83.11.88.04.56-.02.47.13.56.11.27.37.16h.81s1.31-.05,1.31-.05l.81-.05,1.62-.06,1.12-.12,3.55-.24,1.3-.13.9-.02,1.3-.14,1.13-.03.75-.14.44-.17.15-.39.14-.62.04-.8-.15-2.14-.14-1.35v-.7s-.31-4.62-.31-4.62l.08-.85.1-.47.2-.39.55-.55.84-.25h.76s.9-.06.9-.06l.78.18.66.52.29.97.14.65.15.88-.02.98.08,1.22.14,1.39.15,1.58.05,1.35.05,1.45.06.93.13,1.26-.04.75.11.88.04,1.26.15,1.58.19,1.49v1.27s.12,1.12.12,1.12l.05.7v.61s.02,1.03.02,1.03l.15.88.09.61.05.7v.66s.1.79.1.79l-.04.71.08.51.04.65-.02,1.03-.11,1.04-.49.78-.66.33-1.2.22h-1.26s-.46-.16-.46-.16l-.61-.43-.32-.68-.14-.65-.06-1.64-.59-8.67-.13-1.21-.4-.53-.73-.04-2.25.06-1.16.13-1.72-.02-1.74.16-1.57.06-1.07.17-.81.06-1.35.14-1.21.08-.76.1-.31.12-.68.7-.1,1.13.28,4.15v1.41s.15.83.15.83l.13,1.26.07.98.09.7.02.89-.03.84-.28.49-.38.35-.83.43-.79.24-.54.04-.86-.08Z"/>
    <path d="M324.5,75.44l-.76-.09-.66-.13-.88-.24-1.12-.13-.78-.28-.43-.19-.56-.21-.77-.42-1.02-.54-.83-.62-.42-.28-.45-.38-.54-.39-.37-.37-.41-.33-.56-.68-.68-.79-.43-.57-1.38-2.18-.48-1.33-.42-1.08-.46-1.14-.15-1.05-.15-.63-.09-1.14-.07-.95.02-.56-.04-.81.03-.66.14-.79.16-1.34.24-.87.19-.83.49-1.12.22-.73.48-1.02.59-1.16.48-.6.56-.97,1.01-1.29.89-.98.49-.37.36-.38.5-.46.5-.41.38-.15.55-.45,1.29-.56,1.14-.43,1.32-.46.97-.17.61-.21,1.26-.28,1.14-.06.73-.06,1.07.17,1.57.14,1.06.22.49.06.79.23.86.34.57.21.38.23.64.31.6.3.59.4.67.5.88.62,1.16.98.85.9.83,1.04.95,1.52.61.97.26.5.2.59.26.5.31.88.32,1.12.16.96.14.77.04.43.11.62.09,1.19v.75s-.07.65-.07.65l-.04.75-.18.78-.23,1.2-.17.73-.13.74-.24.91-.2.54-.27.77-.53,1.07-.48.98-.51.83-.37.52-.28.44-.41.42-.36.38-.32.39-.22.3-.31.29-.55.46-.64.4-.45.37-.35.24-.44.28-.39.28-.48.23-.35.24-.58.31-.95.41-1.05.49-.8.24-.51.13-.98.22-1.16.19-.96.03-1.29-.15-1.02-.21ZM326.64,70.22l.58.02.27-.02.24-.11.19-.08.59-.02.62-.21.56-.12.9-.37.97-.5,1.26-.75.76-.66.26-.25.42-.52.77-.8,1.06-1.29.39-.99.28-.86.25-1.01.24-1.24.16-.64.05-1.22-.12-1.71-.19-1.1-.33-1.03-.13-.81-.21-.54-.27-.79-.45-.75-.26-.45-.43-.57-1.37-1.43-1.33-1.05-.81-.47-.9-.39-.35-.14-.56-.25-.74-.27-2.46-.29-.69.06h-.81l-1.07.21-1.55.48-2.68,1.19-.51.46-.41.42-.3.2-.63.73-.49.74-.26.3-.24.49-.38.57-.35.71-.31.72-.17.64-.34,1-.23,1.15-.02.56-.03.66v.75s-.08.7-.08.7l.02.24.08.53.08.85.05.71.42,1.08.88,1.8.72,1.21.27.41.64.73.82.71.29.22.17.11.75.56.89.57.73.32,1.22.37,1.23.33,1.07.17h1.31Z"/>
    <path d="M354.7,80.06l-.47-.48-.12-.71.02-.87.24-.95.34-.97.22-.91.29-.64.3-1.18,1.21-4.08.06-.52.25-1,.82-2.78.41-1.24.25-.85.38-.96.34-.97.43-1.14.26-1.19.36-.91.61-2.06.1-.65.39-1.3.29-1.13.73-2.47.39-.67.22-.28.31-.25.36-.09.56.02.57.12.53.25.82.24.7.16.42.32.18.35.1.47v.34s-.17.73-.17.73l-.22.91-.2.67-.21,1.01-.21.72-.35.87-.27.75-.84,2.82-.25,1-.17.88-.2.82-.35,1.36-.25,1-.14.3-.1.51-.21.87-.29.84-.12.4-.16.39-.05.33-.35.87-.24.81-.5,1.51-.42.95-.31,1.03-.18.77-.19,1.11-.11.36-.08.42.15.44.19.15,1.9.56.94.33.4.07.42.17.68.25.85.3.91.27.73.07.83.19.78.23.64.24.86.25.49.24.78.23,1.08.17,1.03.31.63.24.6.18.52.3.38.46.3.72v.34s-.61,2.02-.61,2.02l-.22.42-.22.28-.44.21-.85.19-.63-.09-.72-.26-2.24-.66-.77-.08-.55-.21-2.46-.73-.63-.24-2.57-.66-8.32-2.47-.58-.42Z"/>
    <path d="M403.34,98.88l-.27-.17-.38-.13-.89-.53-.83-.35-.5-.29-1.15-.5-.85-.41-.75-.41-.65-.31-.61-.19-.63-.35-.22-.06-.85-.51-1.22-.59-1.32-.68-1.48-.66-1.3-.62-.63-.35-.47-.69-.08-1.08.41-1.05,1.44-2.99.59-1.32.51-.95.63-1.3.35-.82.38-.9.16-.44.29-.59.34-.61.49-1.01.02-.14.22-.36.2-.53.18-.38.45-1.03.89-1.75.61-1.16.34-.72.55-1.24,1.32-2.74.26-.75.3-.53.24-.51.42-.78.22-.46.42-.78.59-1.12.42-.47.5-.33.59-.08h.41s.49.12.49.12l1.18.57,1.66.9,2.68,1.29,1.16.5.87.37,1.28.56,2.63,1.27.83.55.89.43.69.23,1.12.59.63.35,1.66.7.42.26.63.25.61.4.49.54.08.66-.16.96-.35.92-.3.53-.61.64-.73.38-.53-.05-.97-.36-1.48-.66-.87-.37-.35-.22-1.34-.54-1.9-.92-1.52-.78-.91-.49-.41-.19-.85-.31-2.17-.99-.73-.35-.91-.39-.77-.37-.83-.14-.45.62-.39.7-.22.25-.35.72-.5.95-.43,1.09-.56,1.08-.26,1.07.34.53.33.15.83.55,1.09.42.69.33.81.49.93.35,3.1,1.44,2.23,1.07.59.33.59.54.24.74-.06.54-.12.46-.12.36-.39,1.01-.55.83-.53.37-1.01.03-2.15-1.03-2.41-1-1.28-.67-.45-.21-1.64-.84-.51-.19-.71-.4-.99-.42-.53-.15-.61-.08-.41.12-.32.57-.35.61-.42.68-.44.93-.26.65-.38.8-.37.66-.54,1.14-.16,1.27.89,1.05,2.84,1.36,1.16.5,1.11.59,2.33,1.07.89.32,2.43,1.17.44.32.77.37,1.24.65.97.57.53.25.28.24.24.43.06.5-.24.82-.47.86-.24.51-.3.42-.41.42-.41.22-.36.03-.47-.07-2.13-.76-1.12-.38-1.13-.54-.79-.43Z"/>
    <path d="M438.58,121.29l-.53-.71-.1-.9.26-.63.7-.82,1.15-1.47.72-.86.39-.65.7-.82.65-.98.41-.45.35-.38.38-.71.89-1.14.76-.83.5-.79.62-.58.31-.47.52-.66.41-.75.38-.42.46-.59.7-1.11.45-.66.97-1.02.83-1.07.81-.97.54-.77,2.75-3.54.54-.76.6-.48.44-.19.39-.06.72.03.73.45.64.5.71.62.42.63.03.55-.09.7-.48.69-.68.95-.49.62-.35.38-.42.68-.75.89-.69.89-.42.68-.75.89-.93,1.12-.58.74-.37.55-.72.92-.6.84-.81.97-1.31,1.76-.87.98-.37.48-.22.36-1.61,2.07-.42.62-1.49,1.91-.25.46-1.35,1.73-.7.82-.98.89-.49.27-.35.08-.33-.08-.84-.24-.74-.58-.31-.19-.43-.4Z"/>
    <path d="M454.82,134.73l-.19-1.13.25-.75.44-.62.64-.56.7-.55.6-.65.44-.42.57-.62.64-.62.53-.39.84-.88.58-.68.54-.72,1-.98.6-.52.54-.59.64-.56.37-.36,1-.85,1-.98.44-.56.3-.29.6-.46.54-.65.23-.23.67-.52.81-.85.77-.69.5-.62.37-.29.41-.46.64-.68.57-.62.91-.88.67-.58.44-.36.33-.33.6-.46.5-.36.29.03.9.25.5.45.63.58.62.77.52.81.11.71-.17,1.17-.19.81-.27,1.33-.3,1.17-.13.94-.26,1.07-.16,1.04-.08.46-.29.91-.12.81-.1,1.17-.19,1.01-.06.75-.17,1.43-.32,1.82-.33,1.27-.32,1.82-.05.68-.15.65-.23,1.04-.14,1.26-.37,1.49-.09.71-.08.52.05.58.35.35.26-.07.8-.65.73-.65,3.35-3.26,1-.85.6-.59.6-.65.6-.59.53-.39,2.24-2.18.27-.39.57-.49.64-.68.53-.52.47-.52.94-.91.67-.59.76-.42.45.06.54.16.35.23.44.39.45.25.91.93.18.58-.05.62-.32.75-.81.91-.83.69-.4.32-.58.68-.53.46-.44.49-.53.46-.3.36-1.31,1.27-.94.98-1.74,1.69-.41.59-.3.29-.5.36-.64.75-.4.32-.27.33-.46.26-3.95,3.85-.97.88-.47.52-3.78,3.68-.48.65-.87.72-.68-.03-.39-.13-.35-.29-.62-.78-1.04-1-.52-.81-.11-.71.16-1.04.24-1.3.66-3.15.24-1.43.15-.78.42-1.78.39-1.88.21-1.33.1-1.04.19-.81.02-.58.35-1.65.13-.94.02-.58.22-.65.06-.81.32-1.75.34-1.53.16-.91.06-.88.12-.62v-.39s-.17-.45-.17-.45l-.45-.13-.67.59-.74.78-.67.65-.74.65-.98,1.08-1.37,1.34-1.34,1.37-.8.85-.54.72-1.07.98-1.41,1.37-1,.85-.5.49-.74.66-.5.55-.47.39-.6.58-.6.46-.66.2-.55-.09-.38-.19-.6-.42-.41-.42-.29-.16-.59-.74Z"/>
    <path d="M499.67,193.82l-.37-.67-.29-.61-.31-.86-.54-.98-.23-.8-.09-.46-.16-.58-.1-.87-.15-1.15.02-1.03v-.5s.04-.59.04-.59v-.67s.1-.51.1-.51l.03-.53.23-.85.25-1,.21-.68.98-2.39.8-1.16.64-.97.66-1.03.77-.73.42-.49.87-.74.73-.61.47-.31.63-.5.55-.36.72-.34,1.19-.65.85-.31.78-.33,1.2-.25.72-.24,1.12-.2,1.28-.19.77.04,1.12-.1,1.64.07,1.31.15.59.19.52.08.67.14.63.17.34.22.69.19,1.2.73,1.01.68,1.14.81.7.69.53.38.95.86.71.89.47.56.48.97.8,1.36.44.99.24.43.27.78.23.9.16.58.03.45.12.7.1.66.02.71-.02.83v1.08s-.12,1.51-.12,1.51l-.24,1.21-.37,1.28-.69,1.66-.43,1.06-.26.5-.36.51-.26.5-.54.76-.73.91-.69.69-.54.56-.33.28-.45.45-.92.76-.61.44-.57.32-.64.4-.74.31-1.11.5-.7.28-.68.32-.88.33-.56.15-.78.23-1.18.19-1.08.18-.97.07h-.64s-.52.02-.52.02l-.58-.09-.52-.07-.5-.04h-.37l-.42-.08-.69-.19-.7-.29-.56-.15-.4-.14-.48-.2-.46-.16-.46-.26-.4-.14-.59-.29-.89-.54-1.01-.58-.66-.51-.4-.34-.74-.67-.83-.83-.58-.76-.63-1.14-.42-.95ZM505.16,192.55l.32.49.17.21.23.13.17.11.36.47.53.38.42.38.82.52.96.49,1.34.6.98.23.36.06.66.04,1.1.16,1.66.12,1.03-.26.87-.27.96-.38,1.15-.53.62-.24,1.02-.66,1.32-1.09.79-.79.64-.87.59-.58.32-.49.48-.67.36-.81.22-.48.21-.68.37-1.95.08-1.69-.08-.93-.21-.96-.09-.36-.12-.6-.21-.76-1.19-2.17-.45-.52-.47-.66-.79-.75-1.29-.99-2.52-1.49-.67-.14-.58-.09-.34-.12-.96-.09-.89.03-.39-.04-.54.09-.68.02-.79.12-.76.16-.62.24-1.01.3-1.07.48-.47.31-.55.35-.61.44-.62.34-.18.15-.39.37-.65.56-.55.46-.64.97-.95,1.76-.57,1.29-.18.46-.23.95-.1,1.08v.37s0,.21,0,.21l-.02.93.04,1.05.16.78.4,1.22.44,1.19.48.97.75,1.08Z"/>
    <path d="M513.52,221.43l.33-1.1.55-.56.67-.36.81-.22.87-.19.83-.32.58-.19.79-.31.84-.28.65-.12,1.14-.42.82-.36.8-.41,1.33-.44.77-.2.74-.29.81-.22.49-.16,1.27-.32,1.33-.44.63-.31.4-.13.74-.15.77-.35.31-.1.83-.17,1.1-.41.99-.28.73-.33.46-.1.56-.23.88-.33.78-.31,1.2-.39.86-.23.55-.13.45-.15.74-.15.61-.1.25.15.69.62.25.63.31.8.22.97.12.95-.22.69-.66.98-.53.65-.82,1.08-.78.92-.53.79-.71.85-.6.86-.27.37-.66.69-.47.67-.6,1-.62.82-.38.64-.79,1.2-1.09,1.49-.85.99-1.08,1.49-.35.59-.42.52-.66.83-.68,1.07-.99,1.18-.39.6-.3.43-.22.54.15.47.26.06,1-.23.95-.26,4.44-1.45,1.27-.32.8-.26.83-.32.8-.26.65-.12,2.97-.98.42-.23.72-.19.88-.33.71-.23.65-.26,1.24-.41.86-.23.87-.05.38.25.42.39.21.36.23.54.29.42.4,1.24-.1.6-.32.53-.61.53-1.13.46-1.05.25-.5.12-.81.36-.68.17-.61.25-.68.17-.43.19-1.73.57-1.27.46-2.31.76-.62.35-.4.13-.6.1-.9.39-.5.12-.39.17-.53.03-5.24,1.72-1.26.36-.65.26-5.02,1.64-.71.37-1.1.27-.6-.33-.29-.28-.19-.41-.22-.97-.49-1.35-.12-.96.22-.69.6-.86.79-1.06,1.97-2.54.85-1.18.48-.63,1.16-1.42,1.18-1.52.77-1.11.55-.89.52-.65.28-.52,1.04-1.33.53-.79.27-.52.48-.49.41-.7,1.06-1.43.98-1.22.54-.75.44-.76.38-.5.18-.35.04-.48-.35-.31-.86.23-1.01.38-.89.29-.95.26-1.35.54-1.82.6-1.81.64-1.09.41-.8.4-1.39.41-1.86.61-1.27.32-.67.22-.95.27-.7.27-.59.15-.8.26-.74.15-.68-.11-.45-.32-.26-.34-.36-.64-.18-.56-.19-.27-.2-.93Z"/>
    <path d="M527.08,277.87v-.32s-.1-.4-.1-.4l-.05-1.04-.17-.88-.04-.59-.23-1.24-.14-.94-.08-.85-.1-.71-.18-.61-.06-.72-.08-.22-.05-.99-.19-1.34-.17-1.47-.27-1.59-.21-1.43-.06-.72.31-.77.85-.67,1.1-.25,3.28-.47,1.43-.25,1.07-.11,1.43-.21.87-.17.97-.18.46-.11.65-.09.7-.06,1.11-.15.13-.06.42-.02.55-.12.42-.06,1.1-.21,1.95-.23,1.3-.14.79-.11,1.33-.24,3.01-.43.77-.2.6-.04.56-.08.88-.08.51-.07.89-.08,1.26-.14.62.09.56.24.39.44.24.33.16.48.19,1.29.18,1.88.42,2.93.23,1.24.18.93.24,1.37.42,2.89v1s.14.98.14.98l.19.7.13,1.25.06.72.35,1.77.02.49.14.66v.73s-.17.71-.17.71l-.5.44-.89.4-.96.23-.61.04-.87-.15-.72-.4-.25-.46-.24-1.01-.28-1.59-.18-.93v-.41s-.31-1.41-.31-1.41l-.3-2.09-.2-1.7-.1-1.03-.06-.44-.22-.88-.39-2.35-.12-.8-.19-.97-.12-.84-.35-.77-.76-.03-.79.07-.34-.04-.79.11-1.07.11-1.14.25-1.21.13-1.03.38-.25.58.05.36v1s.26,1.14.26,1.14l.11.76.04.95.23.97.53,3.37.35,2.45.05.68-.12.79-.48.61-.48.25-.45.16-.36.1-1.05.24h-.99s-.6-.23-.6-.23l-.59-.82-.34-2.36-.51-2.56-.16-1.43-.07-.49-.22-1.83-.12-.52-.07-.81-.2-1.06-.17-.52-.27-.55-.32-.27-.65.05-.7.06-.8.02-1.02.15-.69.14-.88.13-.75.06-1.25.18-1.14.57-.38,1.33.45,3.11.23,1.24.13,1.25.41,2.53.23.92.39,2.67-.02.55.12.85.15,1.39.07,1.12.08.58-.04.37-.22.44-.38.33-.81.25-.98.1-.55.08-.52-.02-.58-.1-.41-.21-.23-.28-.2-.42-.55-2.19-.31-1.14-.18-1.25-.08-.9Z"/>
    <path d="M523.17,351.19l.15-.75.18-.65.32-.85.22-1.1.35-.75.23-.41.25-.54.48-.73.63-.97.68-.78.32-.39.42-.42.44-.51.4-.33.37-.39.72-.5.84-.61.6-.38,2.29-1.19,1.36-.37,1.12-.32,1.17-.36,1.06-.06.64-.1h1.14s.95.01.95.01l.56.07.81.03.65.09.77.2,1.33.27.84.31.81.25,1.07.59.7.28.98.57,1.1.68.56.53.92.65,1.2,1.12.9.96.32.52.35.39.41.54.37.53.11.39.41.59.44,1.33.33,1.17.35,1.35.08.98.16.62.17,1.27-.04,1.14v.73s-.26,1.05-.26,1.05l-.27,1.55-.31,1.04-.1.48-.3.76-.41.83-.25.54-.26.36-.37.62-.36.57-.45.55-.56.62-.69.82-1.07,1.07-.97.77-1.11.74-1.6.82-1.01.53-.52.21-.6.15-.52.21-.91.23-1.14.23-.97.08-.78.07h-.43s-.63.06-.63.06h-1.19s-.75-.08-.75-.08l-.64-.13-.74-.11-.76-.25-1.17-.33-.71-.24-.72-.19-.89-.32-.52-.25-.74-.33-1.02-.62-.93-.56-.79-.57-.49-.42-.41-.31-.39-.45-.35-.39-.36-.35-.28-.24-.27-.33-.41-.59-.34-.66-.33-.48-.21-.36-.24-.46-.25-.42-.19-.5-.21-.36-.26-.6-.32-.98-.4-1.09-.17-.81-.09-.52-.13-.99-.1-1.17.05-.95.26-1.28.3-.99ZM528.18,353.78l-.07.58v.27s.08.25.08.25l.06.19-.02.59.16.63.08.56.29.93.42,1,.64,1.32.6.81.23.28.48.46.74.84,1.2,1.16.95.47.83.35.98.34,1.22.34.62.22,1.21.15,1.71.03,1.12-.09,1.05-.24.82-.06.56-.16.8-.2.8-.39.47-.23.6-.38,1.54-1.25,1.16-1.23.54-.76.46-.87.16-.33.3-.53.34-.71.5-2.42v-.69s.07-.81.07-.81l-.11-1.08-.35-1.58-.96-2.77-.41-.54-.39-.44-.17-.31-.67-.69-.7-.56-.27-.29-.47-.28-.53-.43-.68-.41-.69-.37-.62-.22-.96-.43-1.13-.32-.56-.07-.65-.09-.75-.06-.69-.14h-.24s-.53.03-.53.03h-.86s-.72,0-.72,0l-1.12.32-1.86.72-1.27.61-.43.23-.78.57-.77.76-.25.27-.13.16-.62.7-.65.83-.38.7-.48,1.19-.44,1.2-.26,1.05-.12,1.31Z"/>
    <path d="M515.78,380.87l.6-.63.45-.11h.65s.98.45.98.45l1.49.54,1.33.58,3.78,1.5.95.28.81.37.63.2,1.07.47,2.34.93,1.66.76,1.22.34,1.18.56,1.36.49,1.51.65,1.43.57.89.3.58.32.67.22,2.39.95.71.23.5.25.52.35.44.42.28.69-.04.61-.41,1.04-.74,1.74-.17.56-.42.94-.37,1.06-.26.91-.41.9-.3.75-.14.62-.42.94-.32.94-.28.71-.86,2.41-.25.63-.06.27-1.11,2.55-.33.84-.62,1.3-.38.58-.46.4-.44.21-.53.08-.94-.18-1.04-.41-.79-.41-.46-.47-.08-.56.2-.89,1.37-3.47.46-1.03.41-1.04,1-2.65.28-.95.5-1.25.14-.48,1.22-3.09.42-1.33v-.63s-.99-.54-.99-.54l-1.27-.46-.51-.25-2-.79-.84-.29-.93-.18-.53.08-.27.18-.43.84-.47,1.07-.21.64-.95,2.14-.24.73-.25.63-.11.54-1.4,3.55-.48.83-.27.28-.45.25-.88.19-1-.15-.87-.34-1.04-.8-.28-.69.12-1.06.43-1.08.27-.81,1.24-3.38.42-1.19.32-.69.19-.6.26-.53.19-.74.29-.85.14-.72-.04-.55-.43-.56-.44-.27-1.52-.6-.86-.25-.83-.33-.49-.15-1.06-.37-1.45-.53-1.31-.62-2.17-.86-.44-.27-.5-.39-.25-.63-.06-.61.23-.97.29-.85.37-.82Z"/>
    <path d="M500.7,414.91l.7-.53.46-.04.64.12.9.59,1.39.78,1.22.78,3.49,2.09.89.42.74.5.58.3.98.64,2.16,1.3,1.52,1.01,1.15.53,1.08.75,1.26.71,1.38.88,1.32.79.83.44.51.41.63.32,2.21,1.32.67.35.46.33.45.43.37.48.16.73-.14.6-.58.97-1.01,1.6-.26.53-.57.86-.54.99-.4.86-.55.83-.42.69-.24.59-.57.86-.46.87-.39.66-1.23,2.25-.35.58-.1.26-1.51,2.35-.46.77-.82,1.18-.47.51-.52.32-.47.14h-.54s-.89-.33-.89-.33l-.97-.58-.71-.53-.39-.54v-.57s.36-.84.36-.84l1.91-3.2.62-.94.58-.97,1.41-2.45.43-.9.69-1.16.21-.45,1.71-2.85.64-1.25.1-.62-.89-.69-1.19-.66-.46-.33-1.84-1.1-.79-.42-.9-.33h-.54s-.3.13-.3.13l-.56.76-.64.98-.31.6-1.28,1.96-.35.68-.35.58-.19.51-1.96,3.28-.6.74-.31.24-.49.18-.9.04-.96-.31-.8-.48-.9-.96-.17-.73.29-1.03.6-1,.4-.75,1.76-3.14.61-1.1.43-.63.28-.56.34-.48.31-.7.42-.79.25-.69.05-.55-.34-.62-.4-.34-1.4-.84-.81-.38-.76-.46-.46-.22-.99-.54-1.35-.75-1.2-.82-2-1.2-.4-.34-.43-.47-.15-.66.04-.61.39-.92.42-.79.5-.75Z"/>
    <path d="M479.89,446.58l.71-.53.9-.09.63.26.82.7,1.47,1.16.85.73.64.39.82.7.97.65.45.41.38.35.71.39,1.14.89.83.77.79.5.58.63.47.31.66.52.75.41.41.38.59.46,1.11.7.65.45,1.02.97,1.07.84.97.81.76.54,3.53,2.77.76.54.48.6.19.44.06.39-.03.72-.46.73-.5.64-.62.71-.63.42-.55.02-.7-.09-.69-.48-.95-.69-.63-.49-.37-.35-.68-.42-.89-.75-.89-.7-.68-.42-.89-.76-1.11-.93-.73-.58-.54-.37-.92-.72-.84-.6-.97-.82-1.75-1.32-.98-.88-.48-.37-.36-.23-2.06-1.62-.62-.42-1.91-1.5-.46-.25-1.73-1.35-.82-.7-.89-.98-.27-.49-.08-.35.08-.33.24-.84.58-.74.19-.31.4-.43Z"/>
    <path d="M456.38,471.04l.58-.63.78-.69.74-.46,1.78-1.2.58-.24,1.39-.63.48-.14.55-.14.48-.15.35-.02.68-.2.68-.07.62-.14.71.03.29-.02h.68s.74.05.74.05l.94.07.91.16.49.05.58.09.58.15.87.26.87.32.62.25.78.35.88.32.52.34.62.31.46.4.42.24.59.54.58.41.78.74.59.54.98,1.01.42.76.29.43.59.99.75,1.29.43,1.09.33.72.2.59.2.78.16.36.03.16.1.62.13,1.04.14,1.11.07.98v.84s-.12,1.16-.12,1.16l-.25,1.35-.19,1.09-.45,1.48-.32.77-.32.64-.35.67-.32.5-.68,1.11-.42.6-.26.32-.61.66-.61.73-.71.69-.81.59-.33.18-.71.56-.87.46-1.23.61-1.2.51-.36.08-.91.23-1.1.35-1.2.12-1.07.12-.81.07h-1s-1-.14-1-.14l-.97-.23-.58-.28-.49-.57-.23-.82-.1-.75v-1.04s.19-.64.19-.64l.48-.6.58-.37.68-.07,1.04.04.97-.03.84.1.91-.1.62-.08.87-.26.84-.23.68-.4,1.04-.55.71-.43.71-.69.87-.65.71-.95.48-.66.45-.76.42-.8.35-.99.35-1.25.16-.68.03-.62.06-.91v-.78s-.1-.81-.1-.81l-.17-1.21-.56-1.54-.66-1.51-.42-.63-.39-.53-.62-.77-.75-.77-.94-.71-.94-.78-.72-.41-.65-.48-.75-.38-.45-.08-.52-.21-.49-.24-.19-.07-.55-.05-.97-.23-.71-.09-.58-.02-.81.07-.97.03-.61.14-1.04.29-.97.29-.58.3-.74.46-1.1.74-.62.53-1.03,1.13-.77,1.01-.55.85-.45.89-.29.67-.23.81-.19,1.1-.12,1.03v1.88s.04.68.04.68l-.25.7-.55.66-1.32.57-1.69-.12-.71-.35-.36-.43-.39-.73-.23-.95v-.78s-.04-1.13-.04-1.13l.48-2.61.26-.84.06-.45.96-2.56.32-.51.35-.6.32-.51.32-.57.87-.97.58-.76.71-.56Z"/>
    <path d="M435.28,490.2l.83-.32.89.15.53.42.6.89,1.11,1.51.63.93.52.55.6.89.77.88.32.52.27.44.58.56.86,1.16.6.96.63.7.39.75.37.42.5.68.61.6.3.48.44.6.89.97.51.61.72,1.21.8,1.09.71,1.04.59.72,2.66,3.61.59.72.3.71.07.47-.05.39-.22.69-.63.58-.65.48-.79.52-.71.24-.54-.12-.65-.27-.54-.65-.73-.91-.47-.64-.27-.44-.54-.58-.66-.97-.67-.9-.54-.59-.66-.97-.82-1.19-.55-.75-.43-.5-.69-.94-.65-.8-.71-1.04-1.34-1.74-.7-1.1-.36-.49-.29-.31-1.56-2.11-.48-.57-1.44-1.96-.38-.36-1.31-1.77-.6-.89-.6-1.19-.12-.55v-.36s.18-.3.18-.3l.46-.75.76-.56.26-.25.5-.31Z"/>
    <path d="M419.14,500.86l.58-.16.91-.02.8.15.66.28.43.41.41.74.05.93.1.74.05.56.03.62.12,1.06.12.79.11,1.97.1,1.12.16,1.14.07,1.62.12,1.16.04.73.06.77.07.87.26,1.78v1.12s.18,1.08.18,1.08l.12,1.53.2,1.86.1,1.01.27,1.88.09,1.18.14.72.03.89.04.72.1.37.07.5.12.68-.05.56.03.62v.58s.04.42.04.42v.64s-.25.67-.25.67l-.87.75-1.06.59-.58.16-.66-.17-.57-.38-.51-.36-.91-.72-.89-.68-1.58-1.1-.6-.53-.57-.38-.64-.61-.72-.56-.51-.47-.59-.42-.99-.78-.93-.66-.68-.59-.55-.34-.41-.36-.61-.46-.72-.46-.6-.52-.62-.57-.46-.27-.49-.42-.8-.52-.77-.65-1.21-.99-1.47-1-.94-.76-.61-.46-.36-.28-.45-.45-1.01-.72-.78-.58-.38-.22-.78-.58-.75-.71-.58-.59-.34-.98.14-.77.56-.85,1.18-1.12,1.02-.29.54.13.62.19.41.47.78.58.95.7.48.32.81.62.95.7.36.28.54.34.72.46.57.38.55.07.83-.35.96-.58,4.61-2.53,1.32-.68.98-.64.57-.26.63-.45.61-.39.35-.57.03-.5-.11-2.07v-.95s-.14-.52-.14-.52l-.03-.52-.08-.71-.07-.87-.14-.72.03-.87.07-1,.23-.61.54-.51.69-.33ZM412,521l-.02.06-.1.1.04.46.52.67.58.48,1.74,1.12.82.56,1.24,1.03.75.6.68.58,1.02.83.7.15-.05-.83-.25-1.2-.19-1.93-.1-1.39-.21-1.22-.09-.91-.06-1.03-.14-.35-.13-.41-.22-.41-.43-.14-.69.33-.71.39-1.15.52-2.68,1.37-.89.54Z"/>
    <path d="M382.48,519.95l.66.11.52.51.49.72.37.91.3.98.35.87.15.69.45,1.13,1.41,4.01.26.46.39.95.96,2.73.39,1.25.29.84.26,1,.3.98.32,1.18.49,1.12.24.96.71,2.03.3.58.45,1.28.43,1.09.85,2.42.08.77-.02.35-.1.39-.23.28-.46.31-.54.24-.58.11-.81.28-.66.28h-.53s-.35-.19-.35-.19l-.35-.32-.19-.28-.29-.69-.35-.87-.23-.66-.43-.94-.25-.7-.23-.91-.22-.77-.98-2.78-.39-.95-.38-.81-.32-.78-.51-1.31-.39-.95-.07-.33-.21-.47-.34-.82-.25-.85-.14-.4-.1-.41-.15-.29-.23-.91-.28-.8-.49-1.51-.21-1.02-.36-1.01-.31-.73-.5-1.01-.12-.35-.18-.38-.38-.26h-.24s-1.86.64-1.86.64l-.95.29-.37.18-.44.11-.7.19-.87.25-.89.31-.63.37-.79.33-.76.27-.65.18-.85.3-.54.09-.77.27-.97.49-1.02.36-.65.18-.59.21-.6.06-.58-.14-.67-.41-.19-.28-.7-1.99-.07-.47.02-.35.23-.43.58-.65.56-.3.74-.21,2.2-.78.67-.39.57-.15,2.42-.85.65-.18,2.47-.97,8.19-2.88h.71Z"/>
    <path d="M328.66,534.07l.98.34.36.48.23.64.12.93.02.75.13.98.11,1.26.1.7.02.75.16,1.35.07.79v1.69s.18,2.05.18,2.05l.1.69.08.46.09,1.07.05,1.12.11,1.3.11.74.11,1.26.14,1.16.28,3.35.18,1.67.08.93.04,1.03.14,1.11.11,1.26.03,1.41-.27.58-.21.25-.63.52-1.11.24-.81.07-.64-.09-.5-.1-.34-.25-.3-.4-.17-.36-.14-.55-.15-.74-.11-1.3-.17-1.44-.08-.98-.03-.89-.18-2.09-.12-.83-.12-.88-.05-.56v-.47s-.13-.55-.13-.55l-.11-.27-.37-.15-.81.02-1.3.06-.81.07-1.62.09-1.12.14-3.54.3-1.3.16-.9.03-1.29.15-1.13.05-.75.16-.44.18-.15.39-.13.62-.02.8.18,2.14.16,1.35.02.7.39,4.61-.06.85-.1.48-.19.39-.54.56-.83.26-.76.02-.9.08-.78-.17-.68-.51-.31-.96-.14-.64-.17-.88v-.99s-.09-1.21-.09-1.21l-.16-1.39-.18-1.58-.07-1.35-.08-1.44-.08-.93-.15-1.26.02-.75-.12-.88-.06-1.26-.18-1.58-.21-1.48-.02-1.26-.14-1.11-.06-.7v-.61s-.05-1.03-.05-1.03l-.16-.88-.1-.6-.06-.7v-.66s-.12-.79-.12-.79l.03-.71-.09-.51-.06-.65v-1.03s.1-1.04.1-1.04l.47-.79.65-.34,1.2-.24h1.26s.46.14.46.14l.62.42.33.68.14.65.09,1.63.73,8.66.15,1.2.41.53.72.03,2.25-.1,1.16-.14h1.71s1.74-.2,1.74-.2l1.57-.09,1.07-.18.81-.07,1.34-.16,1.21-.1.76-.11.3-.12.66-.71.08-1.13-.35-4.14v-.66s-.03-.75-.03-.75l-.16-.83-.15-1.25-.08-.98-.1-.7-.03-.89.02-.84.27-.49.38-.36.82-.44.79-.25.54-.05.86.07Z"/>
    <path d="M273.78,533.98l.76.08.67.12.88.23,1.12.11.79.26.44.19.57.2.77.41,1.03.53.84.6.42.28.46.37.55.38.37.37.42.32.57.67.69.77.44.56,1.41,2.16.5,1.32.44,1.08.47,1.13.17,1.05.16.63.11,1.14.08.95v.56s.04.8.04.8l-.02.66-.12.79-.14,1.35-.22.87-.17.83-.48,1.13-.21.73-.46,1.03-.57,1.16-.47.61-.55.98-.99,1.31-.87.99-.49.37-.35.39-.5.47-.49.42-.38.15-.54.46-1.28.58-1.13.45-1.31.48-.97.19-.61.22-1.25.3-1.14.08-.73.07-1.07-.15-1.57-.11-1.07-.2-.49-.05-.79-.22-.87-.32-.57-.2-.38-.23-.65-.3-.6-.29-.6-.39-.67-.49-.89-.6-1.16-.96-.86-.89-.85-1.02-.98-1.51-.63-.95-.27-.5-.21-.58-.27-.5-.32-.88-.34-1.12-.18-.96-.15-.77-.05-.43-.12-.62-.11-1.18v-.75s.05-.65.05-.65l.03-.75.17-.78.21-1.2.16-.73.12-.74.23-.92.19-.55.26-.77.52-1.08.46-.98.49-.85.37-.53.27-.44.41-.43.35-.39.31-.39.21-.31.3-.3.54-.46.63-.41.44-.38.34-.25.44-.29.39-.29.47-.23.34-.25.58-.32.95-.42,1.04-.51.79-.25.51-.14.97-.23,1.15-.21.95-.05,1.29.13,1.02.2ZM271.71,539.22h-.58s-.27,0-.27,0l-.24.12-.19.08-.59.04-.61.22-.56.13-.89.38-.96.52-1.25.77-.75.68-.25.26-.41.52-.76.81-1.04,1.31-.37,1-.27.87-.24,1.01-.21,1.25-.16.64-.03,1.22.15,1.7.2,1.1.35,1.02.14.81.22.54.29.78.46.75.27.45.44.56,1.4,1.41,1.34,1.02.81.46.91.37.35.13.56.24.74.26,2.46.25.69-.08h.81s1.06-.23,1.06-.23l1.54-.5,2.66-1.24.5-.47.4-.43.29-.21.62-.74.48-.75.26-.3.23-.49.37-.57.34-.71.3-.72.15-.64.33-1,.2-1.16v-.56s.03-.66.03-.66v-.75s.06-.7.06-.7l-.02-.24-.08-.52-.1-.85-.06-.71-.44-1.08-.91-1.78-.74-1.2-.27-.4-.65-.72-.83-.69-.29-.22-.17-.11-.76-.54-.89-.56-.74-.31-1.23-.36-1.23-.31-1.07-.15h-1.31Z"/>
    <path d="M243.49,529.85l.48.47.13.72v.87s-.23.96-.23.96l-.32.98-.21.91-.27.65-.28,1.18-1.14,4.1-.05.52-.23,1-.78,2.79-.39,1.25-.24.85-.36.97-.32.98-.41,1.14-.24,1.2-.35.92-.58,2.07-.09.66-.37,1.3-.27,1.14-.69,2.47-.38.67-.22.28-.31.26-.35.1h-.56s-.57-.12-.57-.12l-.54-.25-.82-.23-.71-.15-.43-.31-.18-.34-.1-.46v-.34l.16-.73.21-.91.19-.68.19-1.02.2-.72.34-.88.26-.75.79-2.84.23-1,.15-.88.18-.82.33-1.36.23-1,.13-.3.09-.51.2-.87.28-.84.11-.41.15-.39.04-.33.34-.88.22-.81.47-1.52.41-.95.29-1.04.17-.78.17-1.12.1-.36.07-.42-.16-.43-.19-.15-1.91-.53-.94-.31-.4-.06-.42-.17-.68-.24-.85-.29-.91-.25-.73-.06-.83-.18-.78-.22-.64-.23-.87-.24-.49-.23-.78-.22-1.08-.15-1.04-.29-.64-.22-.61-.17-.52-.29-.39-.45-.31-.72v-.34l.56-2.03.21-.43.22-.28.43-.22.85-.2.63.08.72.25,2.25.63.77.07.55.2,2.47.69.64.23,2.58.62,8.36,2.33.59.41Z"/>
    <path d="M194.56,511.84l.27.17.39.13.9.52.84.33.51.29,1.16.48.86.4.76.4.66.3.61.18.64.34.22.05.86.5,1.23.57,1.33.66,1.49.63,1.31.6.63.34.48.68.1,1.07-.39,1.06-1.39,3.01-.57,1.34-.49.96-.61,1.31-.33.83-.37.91-.15.44-.27.6-.33.62-.47,1.01-.02.15-.22.36-.19.53-.18.38-.43,1.04-.86,1.76-.59,1.17-.33.72-.53,1.25-1.27,2.76-.25.76-.29.53-.23.51-.41.79-.21.47-.41.79-.57,1.13-.42.48-.5.34-.59.09-.41.02-.48-.12-1.19-.54-1.68-.88-2.69-1.24-1.16-.48-.88-.35-1.28-.54-2.66-1.22-.84-.54-.9-.41-.69-.21-1.12-.57-.64-.34-1.67-.67-.43-.25-.63-.24-.62-.39-.5-.54-.09-.66.14-.96.33-.93.29-.53.6-.65.72-.39.53.04.98.35,1.49.63.88.35.35.21,1.34.52,1.92.89,1.53.76.92.48.41.19.85.29,2.18.95.73.34.92.37.78.36.83.12.44-.62.37-.7.22-.26.33-.72.49-.96.41-1.1.55-1.08.25-1.07-.35-.52-.33-.15-.84-.54-1.1-.4-.7-.32-.82-.48-.94-.33-3.12-1.38-2.24-1.03-.59-.33-.6-.53-.26-.73.05-.54.11-.46.12-.36.37-1.01.54-.84.52-.38,1.01-.05,2.16,1,2.42.96,1.29.64.45.21,1.66.81.51.18.71.38,1,.41.53.14.61.07.4-.12.31-.58.33-.62.41-.68.43-.93.25-.66.37-.81.35-.66.53-1.15.14-1.27-.91-1.04-2.86-1.31-1.16-.48-1.12-.57-2.35-1.03-.9-.31-2.45-1.13-.45-.31-.78-.36-1.25-.63-.98-.56-.53-.24-.29-.24-.25-.42-.07-.5.23-.82.45-.87.23-.51.3-.43.39-.44.4-.23.37-.04.47.06,2.14.73,1.12.36,1.15.53.79.42Z"/>
    <path d="M158.99,490.02l.54.7.11.9-.25.63-.68.83-1.12,1.5-.71.87-.38.65-.68.83-.63.99-.4.46-.35.39-.37.72-.87,1.16-.74.84-.49.8-.62.59-.3.47-.5.67-.4.75-.38.42-.45.6-.68,1.13-.44.66-.95,1.04-.81,1.08-.8.98-.52.77-2.7,3.58-.53.77-.59.49-.43.2-.39.06-.72-.02-.74-.44-.65-.49-.72-.6-.44-.62-.04-.55.08-.7.47-.7.67-.96.48-.64.34-.38.41-.69.74-.91.67-.89.41-.69.74-.91.91-1.13.56-.75.36-.55.7-.93.58-.85.8-.98,1.29-1.78.85-.99.37-.48.22-.36,1.57-2.09.41-.62,1.46-1.94.23-.46,1.32-1.76.68-.83.97-.91.49-.28.35-.09.34.08.84.23.76.57.31.18.44.39Z"/>
    <path d="M142.53,476.84l.21,1.13-.24.75-.43.63-.62.56-.69.56-.6.66-.42.43-.56.63-.63.63-.52.4-.83.89-.56.7-.53.72-.98.99-.59.53-.53.59-.62.57-.36.37-.99.86-.99.99-.43.56-.29.3-.59.47-.53.66-.23.23-.66.53-.79.86-.76.69-.5.63-.36.3-.4.46-.63.69-.56.63-.89.89-.66.6-.43.37-.33.33-.59.46-.49.37-.29-.03-.9-.24-.51-.44-.64-.57-.64-.77-.54-.79-.12-.71.15-1.17.18-.81.25-1.33.28-1.18.11-.94.25-1.08.15-1.04.07-.46.27-.91.11-.81.08-1.17.18-1.01.05-.74.15-1.43.29-1.82.31-1.27.29-1.82.04-.68.14-.65.21-1.04.12-1.27.35-1.5.08-.72.07-.52-.06-.58-.35-.35-.26.07-.79.67-.72.66-3.29,3.32-.99.86-.59.6-.6.66-.59.6-.53.4-2.21,2.22-.27.39-.56.5-.63.7-.52.53-.46.53-.92.93-.66.6-.75.44-.45-.06-.55-.15-.35-.22-.44-.38-.45-.25-.93-.92-.19-.58.04-.62.31-.75.79-.93.82-.7.39-.33.56-.7.53-.46.43-.5.53-.47.3-.36,1.29-1.29.92-1,1.72-1.72.4-.59.3-.3.49-.37.63-.76.39-.33.27-.33.46-.27,3.89-3.91.95-.89.46-.53,3.72-3.75.46-.66.85-.73.68.02.39.12.35.28.64.76,1.05.98.54.8.12.71-.15,1.04-.21,1.3-.6,3.15-.22,1.43-.14.78-.39,1.79-.35,1.89-.18,1.33-.08,1.04-.18.81v.58s-.33,1.66-.33,1.66l-.11.94v.58s-.21.65-.21.65l-.04.81-.29,1.76-.32,1.53-.14.91-.05.88-.11.62v.39s.18.45.18.45l.45.12.66-.6.73-.79.66-.66.73-.66.96-1.09,1.35-1.36,1.32-1.39.79-.86.53-.73,1.06-.99,1.38-1.39.98-.87.49-.5.72-.66.5-.56.46-.4.6-.6.59-.47.65-.21.55.08.39.19.61.41.42.41.29.15.6.73Z"/>
    <path d="M96.68,418.45l.38.67.29.61.32.85.56.98.24.79.1.46.17.58.12.87.17,1.15v1.04s.02.5.02.5l-.04.59v.67s-.08.51-.08.51l-.02.53-.21.85-.23,1.01-.2.68-.94,2.4-.78,1.18-.62.97-.64,1.04-.76.75-.42.5-.87.75-.72.62-.46.32-.62.51-.54.37-.71.35-1.18.67-.84.32-.77.34-1.19.27-.72.25-1.11.22-1.28.21-.77-.02-1.12.12-1.64-.05-1.31-.13-.59-.18-.52-.06-.67-.14-.63-.16-.34-.22-.69-.17-1.21-.71-1.02-.66-1.15-.79-.71-.68-.53-.37-.97-.85-.72-.88-.48-.56-.49-.96-.82-1.34-.46-.98-.25-.43-.28-.77-.24-.9-.17-.58-.04-.44-.13-.7-.11-.66-.03-.71v-.83s-.01-1.08-.01-1.08l.11-1.51.22-1.22.35-1.28.66-1.68.41-1.06.25-.51.35-.51.25-.5.53-.77.71-.92.68-.7.54-.56.32-.29.44-.46.9-.77.6-.45.57-.33.63-.41.73-.32,1.1-.52.69-.29.67-.33.88-.35.56-.16.78-.24,1.18-.21,1.07-.2.97-.09h.64s.52-.04.52-.04l.58.08.52.06.5.03h.37s.42.07.42.07l.69.17.7.28.57.14.4.14.49.19.46.15.47.25.4.14.59.28.89.52,1.02.56.67.5.41.34.75.66.84.81.59.75.65,1.13.43.94ZM91.21,419.81l-.33-.48-.17-.21-.23-.12-.17-.11-.37-.46-.53-.37-.43-.38-.83-.51-.98-.48-1.35-.58-.98-.21-.35-.06-.67-.04-1.1-.14-1.66-.09-1.03.27-.86.29-.96.39-1.14.55-.61.24-1.01.68-1.3,1.11-.78.81-.63.88-.58.59-.31.49-.47.68-.34.81-.21.48-.2.68-.34,1.95-.06,1.69.1.93.22.96.1.36.13.6.22.76,1.22,2.15.46.52.48.66.8.73,1.3.97,2.55,1.45.67.14.58.08.33.12.96.08.89-.04.39.03.54-.1.68-.03.78-.14.76-.17.61-.25,1-.32,1.06-.5.47-.32.54-.37.61-.45.61-.35.18-.15.38-.37.64-.57.54-.46.63-.98.93-1.77.55-1.29.17-.46.21-.95.08-1.08v-.37s0-.2,0-.2v-.93s-.06-1.05-.06-1.05l-.18-.78-.42-1.21-.46-1.18-.49-.96-.77-1.06Z"/>
    <path d="M82.39,391.11l-.31,1.11-.55.57-.66.37-.81.23-.87.21-.83.33-.58.2-.78.32-.84.29-.65.13-1.14.44-.81.38-.79.42-1.32.46-.77.22-.74.3-.81.23-.48.17-1.27.34-1.32.46-.64.31-.4.14-.73.16-.77.36-.31.11-.82.19-1.09.42-.99.29-.72.35-.46.11-.56.24-.87.35-.78.32-1.19.41-.85.25-.54.14-.44.15-.73.16-.6.11-.25-.15-.71-.61-.26-.62-.33-.79-.23-.97-.13-.95.21-.69.65-.98.52-.66.81-1.09.77-.93.51-.79.7-.86.59-.87.27-.38.65-.7.46-.68.59-1.01.6-.83.37-.65.77-1.22,1.06-1.51.84-1,1.06-1.51.34-.59.41-.52.65-.84.66-1.09.97-1.19.38-.61.29-.44.21-.54-.16-.47-.26-.05-1,.25-.94.28-4.42,1.53-1.27.34-.79.27-.83.33-.8.27-.65.13-2.96,1.02-.41.24-.72.2-.87.35-.71.24-.65.27-1.24.43-.85.25-.87.06-.38-.25-.43-.38-.22-.35-.23-.54-.29-.42-.42-1.23.09-.6.31-.54.6-.54,1.12-.48,1.05-.27.5-.13.81-.38.68-.18.6-.25.68-.19.43-.2,1.73-.6,1.27-.49,2.3-.79.62-.36.4-.14.6-.12.9-.41.5-.13.38-.18.53-.04,5.21-1.8,1.25-.39.65-.27,4.99-1.73.71-.39,1.09-.28.6.31.29.28.19.41.23.97.51,1.35.13.95-.21.69-.59.87-.77,1.08-1.93,2.57-.83,1.19-.47.64-1.14,1.44-1.15,1.54-.75,1.12-.53.9-.52.66-.26.52-1.02,1.35-.52.8-.27.52-.47.5-.4.71-1.03,1.45-.96,1.24-.53.75-.43.77-.37.51-.18.35-.03.48.35.31.85-.25,1-.39.88-.31.95-.28,1.34-.56,1.81-.63,1.8-.67,1.09-.42.8-.42,1.38-.43,1.86-.64,1.27-.34.66-.23.94-.28.7-.29.59-.15.8-.27.73-.16.68.1.46.32.26.34.37.64.19.55.19.27.22.92Z"/>
    <path d="M67.91,334.88v.32s.12.39.12.39l.07,1.04.19.88.05.58.25,1.24.15.93.09.85.12.71.19.61.07.72.08.22.06.99.21,1.33.19,1.47.31,1.59.23,1.42.07.71-.3.78-.84.68-1.09.27-3.28.53-1.42.27-1.07.13-1.43.23-.87.19-.96.2-.45.12-.65.1-.7.07-1.11.18-.13.07-.42.02-.55.13-.41.07-1.1.22-1.95.27-1.3.16-.79.13-1.33.26-3,.48-.77.21-.61.05-.56.09-.88.1-.51.08-.88.1-1.25.16-.63-.08-.56-.23-.4-.44-.24-.33-.17-.48-.21-1.29-.2-1.88-.47-2.93-.25-1.24-.2-.93-.27-1.37-.46-2.89-.02-1-.16-.98-.21-.7-.15-1.25-.07-.72-.38-1.76-.03-.5-.15-.66-.02-.72.17-.71.5-.44.88-.41.95-.24.61-.05.87.13.73.39.26.46.26,1.01.3,1.59.2.93.02.41.32,1.41.34,2.09.23,1.7.12,1.03.07.44.23.87.42,2.35.13.8.2.97.14.84.36.76.76.02.79-.08.34.04.78-.13,1.07-.12,1.14-.27,1.21-.15,1.02-.39.24-.58-.06-.35-.02-1-.28-1.14-.12-.75-.06-.95-.25-.96-.59-3.37-.39-2.44-.06-.67.11-.79.47-.62.48-.26.45-.16.36-.1,1.04-.26.99-.02.6.22.6.81.38,2.36.55,2.55.18,1.43.08.49.25,1.83.13.52.08.81.22,1.06.18.52.28.55.33.27.65-.06.7-.07.8-.04,1.02-.16.68-.15.88-.14.75-.07,1.25-.2,1.14-.59.35-1.33-.5-3.11-.25-1.24-.15-1.25-.45-2.53-.24-.92-.43-2.66v-.55s-.13-.85-.13-.85l-.17-1.38-.09-1.13-.09-.58.03-.37.21-.44.37-.33.81-.27.98-.11.55-.09h.52s.58.1.58.1l.41.21.23.28.21.42.59,2.18.33,1.13.2,1.25.1.89Z"/>
  </g>
</svg>