<svg viewBox="0 0 841.89 343.7" xmlns="http://www.w3.org/2000/svg">
  <g fill="#FFFFFF">
    <path d="M216.41,199.91c-2.06,5.04-3.38,10.44-3.93,16.2-.56,5.77-.28,11.07.82,15.92s3.15,8.82,6.1,11.93c2.96,3.12,6.88,4.47,11.78,4.08,3.46-.29,6.53-1.52,9.22-3.69,2.68-2.17,5.04-4.92,7.07-8.26,1.01-1.24,1.95-2.21,2.82-2.88.86-.68,2.08-1.02,3.65-1.02,3.77.15,7.61-1.18,11.54-3.95,2.03-1.43,3.69-3.11,5.03-4.99.02.28.02.57.04.86.21,2.57.75,5.05,1.6,7.46,1.42,4.49,3.91,7.1,7.46,7.82,3.56.72,7.24-.24,11.07-2.89,2.73-1.87,5.04-3.98,6.91-6.32,1.6-2,3-4.15,4.25-6.44.45-.77.88-1.56,1.29-2.36.24-.48.45-.96.68-1.44.87,3.22,2.21,5.93,4.06,8.12,2.48,2.76,5.44,4.54,8.89,5.33,3.44.8,6.85.76,10.22-.13,3.95-.97,7.46-2.75,10.51-5.34,3.05-2.58,5.73-5.54,8.06-8.86,2.33-3.32,4.35-6.83,6.08-10.55,1.72-3.71,3.24-7.23,4.53-10.57.34-.9.31-1.71-.1-2.44-.42-.72-.97-1.21-1.68-1.46-.71-.26-1.44-.29-2.19-.12-.76.18-1.32.66-1.68,1.44-1.03,2.7-2.3,5.68-3.79,8.93-1.49,3.26-3.24,6.4-5.25,9.42-2.01,3.03-4.35,5.69-7.02,7.97-2.67,2.29-5.64,3.8-8.91,4.54-2.21.59-4.32.61-6.33.07-2.02-.53-3.72-1.78-5.11-3.75-.74-.85-1.26-1.74-1.59-2.65-.32-.92-.65-2.01-.96-3.30-.2-1.3.19-2.48,1.18-3.53.98-1.06,1.76-1.7,2.33-1.9,3.1-1.08,6.09-2.39,9-3.93,2.91-1.54,5.52-3.39,7.84-5.56,2.32-2.17,4.27-4.65,5.83-7.43,1.56-2.78,2.62-5.9,3.18-9.37.81-4.96-.17-8.94-2.93-11.97-2.76-3.02-6.73-4.07-11.91-3.15-2.96.46-5.7,1.67-8.23,3.63-2.54,1.97-4.77,4.36-6.69,7.19-1.92,2.84-3.54,6.02-4.87,9.55-1.33,3.53-2.32,7.1-2.97,10.7-.24,1.49-.41,2.97-.53,4.43-.64,1.65-1.29,3.41-1.95,5.29-1.01,2.87-2.21,5.66-3.61,8.35-.16.31-.33.6-.49.9-1.12,1.9-2.35,3.67-3.71,5.31-1.83,2.22-3.95,3.75-6.36,4.61-2.19.7-3.84.18-4.96-1.59-.94-1.42-1.53-3.41-1.74-5.98-.21-2.56-.24-5.25-.07-8.06.17-2.8.43-5.6.79-8.37.36-2.77.7-5.03,1.04-6.78,1.22-10.1,2.52-20.25,3.91-30.43,1.39-10.18,2.76-20.27,4.12-30.28.2-1.84-.11-3.22-.91-4.12-.81-.9-1.76-1.39-2.85-1.46-1.10-.07-2.14.24-3.12.93-.98.7-1.55,1.72-1.7,3.07l-8.36,63.3c-.21,1.53-.42,3.08-.63,4.65-.27.24-.47.55-.6.96-.26.65-.5,1.29-.7,1.92-.2.64-.5,1.29-.88,1.95-.95,2.44-1.94,4.83-2.97,7.17-1.03,2.34-2.51,4.26-4.46,5.76-1.74,1.24-3.62,2.01-5.63,2.32-1.3.2-2.23-.38-2.81-1.74-.57-1.36-.73-2.79-.48-4.28.87-4.49,1.22-8.95,1.01-13.39-.2-4.44-.99-8.4-2.38-11.87-1.38-3.48-3.36-6.28-5.92-8.42-2.57-2.15-5.83-3.15-9.8-3.02-4.56.22-8.55,2.02-11.95,5.38-3.41,3.37-6.14,7.56-8.21,12.6ZM312.49,198.13c1.29-4.91,3.24-9.35,5.83-13.31,2.59-3.96,5.74-6.48,9.44-7.53,2.56-.64,4.3-.15,5.21,1.46.91,1.62,1.23,3.47.95,5.57-.59,4.81-2.62,8.65-6.1,11.55-3.48,2.9-7.26,5.2-11.35,6.92-1.97.55-3.22.28-3.75-.78-.53-1.07-.61-2.36-.23-3.87ZM237.65,190.11c1.81-.04,3.34.66,4.59,2.1,1.25,1.44,2.18,3.35,2.79,5.73.61,2.38.97,5.11,1.08,8.17.11,3.07-.02,6.14-.39,9.21-.15.63-.33,1.2-.55,1.72-.22.52-.99.82-2.31.9-.98-.09-1.81.04-2.48.38-1.03.4-1.73,1.15-2.1,2.22-.38,1.09-.55,2.11-.52,3.07.22,1.42.93,2.88,2.13,4.39.33.55.65,1.11.98,1.66.33.56.26,1.29-.2,2.21-1.24,2.12-2.69,3.89-4.35,5.29-1.66,1.41-3.49,2.26-5.5,2.57-2.83.44-5.03-.49-6.59-2.79-1.56-2.29-2.6-5.28-3.1-8.95-.51-3.67-.5-7.72.03-12.15.52-4.43,1.52-8.54,2.99-12.34,1.47-3.79,3.36-6.98,5.68-9.57,2.32-2.6,4.93-3.87,7.84-3.84Z"/>
    <path d="M388.84,148.46c1.17.91,2.52,1.24,4.05,1.01,1.54-.24,2.75-.97,3.65-2.2.9-1.23,1.23-2.6.99-4.14-.24-1.53-.97-2.75-2.19-3.65-1.23-.9-2.61-1.23-4.14-.99s-2.72.97-3.56,2.18c-.84,1.22-1.14,2.6-.91,4.13.24,1.54.94,2.76,2.11,3.66Z"/>
    <path d="M380.94,211.14c.44,2.47,1.16,4.6,2.16,6.37,1.15,2,2.58,3.41,4.28,4.24,1.7.83,3.47,1.12,5.3.9,1.84-.22,3.7-.87,5.59-1.95,1.89-1.07,3.66-2.52,5.31-4.35,1.68-1.88,3.21-4.06,4.58-6.51l-.64,5c-.03,1.33.39,2.33,1.27,2.97.89.65,1.88,1.01,2.98,1.08,1.10.08,2.12-.2,3.05-.83.93-.62,1.46-1.68,1.6-3.15l2.83-22.73c.24-2.33.85-5.24,1.83-8.71.97-3.47,2.3-6.85,3.97-10.13,1.67-3.28,3.65-6.09,5.95-8.45,2.3-2.34,4.9-3.5,7.8-3.47,1.22.05,2.34.48,3.37,1.3,1.03.81,1.44,2.13,1.25,3.98-.39,2.96-.83,5.75-1.34,8.36-.5,2.61-.97,5.26-1.41,7.92-.43,2.67-.82,5.45-1.16,8.34-.34,2.9-.49,6.03-.45,9.41.12,3.13.69,5.64,1.71,7.54,1.01,1.9,2.31,3.24,3.88,4.02,1.57.79,3.28,1.10,5.13.93,1.85-.16,3.66-.75,5.44-1.74,2.55-1.49,4.81-3.7,6.77-6.67,1.96-2.96,3.77-6.14,5.42-9.54,1.59-3.02,2.93-6.07,4.03-9.14,1.09-3.07,2.13-5.77,3.10-8.09.34-.9.31-1.71-.10-2.43-.41-.72-.97-1.21-1.68-1.47-.71-.25-1.44-.32-2.21-.21-.77.12-1.27.56-1.52,1.33-.73,1.56-1.56,3.62-2.49,6.18-.94,2.57-2.03,5.27-3.28,8.12-1.53,3.38-3.14,6.46-4.82,9.26-1.68,2.80-3.42,4.70-5.20,5.70-1.66.98-3.06,1.10-4.20.37-1.14-.73-1.65-2.67-1.53-5.83,0-3.14.17-6.10.53-8.88.36-2.77.79-5.47,1.29-8.08.50-2.62.97-5.23,1.42-7.84.44-2.61.81-5.32,1.10-8.15.27-2.94.04-5.38-.68-7.33-.73-1.94-1.74-3.45-3.05-4.52-1.32-1.07-2.75-1.78-4.32-2.14-1.57-.36-3.06-.49-4.50-.39-4.88.51-9.04,2.48-12.50,5.92-.97.75-1.76.97-2.35.64s-.97-.61-1.12-.82c-.47-.66-1.12-1.16-1.96-1.51-.84-.35-1.70-.46-2.59-.32-.89.14-1.73.53-2.53,1.20-.80.67-1.35,1.63-1.64,2.88l-3.48,27.12c-.40,1.24-.97,2.90-1.70,5.04-.84,2.43-1.89,5.01-3.16,7.74-.99,2.21-2.08,4.34-3.27,6.39-1.19,2.06-2.46,3.86-3.79,5.39-1.53,1.81-3.17,2.97-4.90,3.48-1.73.51-3.18-.24-4.33-2.23-.67-1.22-1.13-2.82-1.37-4.77-.24-1.96-.35-4.03-.32-6.21.03-2.18.15-4.31.37-6.40.22-2.09.40-3.87.54-5.34.66-4.33,1.39-8.61,2.19-12.85.80-4.23,1.59-8.10,2.38-11.61.22-1.72-.10-3-.96-3.84-.85-.83-1.77-1.29-2.75-1.39-1.37-.27-2.48.02-3.31.88-.84.86-1.40,1.91-1.69,3.16-.64,2.88-1.34,6.43-2.07,10.65-.74,4.23-1.41,8.68-2.02,13.37-.28,2.10-.49,4.46-.63,7.08-.14,2.62-.18,5.28-.13,7.99.06,2.71.30,5.30.75,7.77Z"/>
    <path d="M501.03,196.40c2.04,5.01,4.80,9.36,8.27,13.05,3.76,4.01,7.98,6.90,12.67,8.65,4.68,1.76,9.47,2.23,14.36,1.41,4.89-.82,9.73-2.93,14.52-6.32,4.79-3.40,9.24-8.26,13.34-14.57.90-1.23,1.72-2.56,2.46-4.01,1.51-1.93,2.94-3.44,4.28-4.56,1.34-1.11,3.17-1.97,5.49-2.57,2.80-.67,5.49-1.63,8.08-2.87,2.59-1.24,5.02-2.71,7.30-4.39,4.14-2.93,7.78-6.28,10.98-10.01l-1.90,14.78c-.04,1.33.39,2.33,1.27,2.97.89.65,1.88,1.01,2.98,1.08,1.10.08,2.12-.20,3.05-.83.93-.63,1.46-1.68,1.60-3.15l2.83-22.73c.24-2.33.85-5.24,1.83-8.71.97-3.48,2.30-6.85,3.97-10.13,1.67-3.28,3.65-6.09,5.95-8.45,2.30-2.34,4.90-3.50,7.80-3.47,1.22.05,2.34.48,3.37,1.29,1.03.81,1.44,2.13,1.25,3.98-.39,2.96-.83,5.75-1.34,8.36-.50,2.62-.97,5.26-1.41,7.92-.43,2.67-.82,5.45-1.16,8.34-.34,2.90-.49,6.03-.45,9.41.12,3.13.69,5.64,1.71,7.54,1.02,1.90,2.31,3.24,3.88,4.02,1.57.79,3.28,1.10,5.13.93,1.85-.16,3.66-.75,5.44-1.74,2.55-1.49,4.81-3.70,6.77-6.66,1.96-2.96,3.76-6.14,5.42-9.54.33-.64.65-1.28.96-1.92.84,3.72,2.28,6.81,4.33,9.26,2.48,2.76,5.44,4.54,8.89,5.33,3.45.80,6.85.76,10.22-.13,3.95-.98,7.46-2.75,10.51-5.34,3.05-2.58,5.73-5.54,8.06-8.86,2.33-3.32,4.35-6.83,6.08-10.55,1.72-3.71,3.24-7.23,4.53-10.58.34-.90.31-1.71-.10-2.44-.42-.72-.97-1.21-1.68-1.46-.71-.26-1.44-.29-2.19-.12-.76.18-1.32.66-1.68,1.44-1.03,2.70-2.30,5.68-3.79,8.92-1.49,3.26-3.24,6.40-5.25,9.42-2.01,3.03-4.35,5.69-7.02,7.97-2.67,2.29-5.64,3.80-8.91,4.54-2.21.59-4.32.61-6.33.07-2.02-.53-3.72-1.78-5.11-3.74-.74-.85-1.26-1.74-1.59-2.65-.32-.92-.65-2.02-.96-3.30-.20-1.30.19-2.48,1.18-3.53.98-1.06,1.76-1.70,2.33-1.90,3.10-1.08,6.09-2.39,9-3.93,2.91-1.54,5.52-3.39,7.84-5.56,2.32-2.17,4.27-4.65,5.83-7.43,1.57-2.78,2.63-5.90,3.18-9.37.81-4.96-.17-8.94-2.93-11.97-2.76-3.02-6.73-4.07-11.91-3.15-2.95.46-5.70,1.67-8.23,3.63-2.54,1.97-4.77,4.36-6.69,7.19-1.92,2.84-3.54,6.02-4.87,9.55-1.33,3.53-2.32,7.10-2.97,10.71-.15.93-.25,1.85-.35,2.77-.39.99-.81,2.07-1.25,3.28-.94,2.56-2.03,5.27-3.28,8.12-1.53,3.38-3.14,6.46-4.82,9.26-1.68,2.80-3.42,4.70-5.20,5.70-1.66.98-3.06,1.10-4.20.38-1.14-.73-1.65-2.67-1.53-5.83,0-3.14.17-6.10.53-8.88.36-2.77.79-5.47,1.29-8.08s.98-5.23,1.42-7.84c.44-2.61.81-5.32,1.10-8.15.27-2.94.04-5.38-.68-7.32-.73-1.94-1.74-3.45-3.05-4.52-1.32-1.07-2.75-1.78-4.32-2.14-1.57-.36-3.06-.49-4.50-.39-4.88.51-9.04,2.48-12.50,5.92-.97.76-1.76.97-2.35.64-.59-.33-.97-.60-1.12-.82-.47-.66-1.12-1.16-1.96-1.51-.84-.35-1.70-.46-2.59-.32-.89.14-1.73.53-2.53,1.20-.80.67-1.35,1.63-1.64,2.88l-2.54,19.75s-.02.03-.03.04c-.38.67-.76,1.38-1.12,2.16-1.80,4.75-4.62,9.21-8.45,13.37-3.83,4.16-7.91,7.47-12.24,9.96-2.22,1.31-3.97,1.49-5.26.54-1.30-.94-1.47-3.06-.53-6.35,2.07-6.97,3.60-14.07,4.60-21.29,1-7.23,1.54-14.47,1.63-21.74-.03-2.53-.13-5.35-.31-8.47-.18-3.11-.52-6.33-1.03-9.63-.51-3.30-1.23-6.61-2.16-9.91-.93-3.30-2.11-6.41-3.53-9.34-2.97-5.94-6.39-10.10-10.26-12.46-3.87-2.36-7.90-3.41-12.09-3.12-4.91.28-9.58,2.12-14.01,5.52-4.43,3.40-8.17,7.76-11.22,13.06-3.89,6.89-6.42,14.80-7.57,23.74-1.16,8.94-.84,17.84.94,26.68,1.79,8.85,5.11,17.04,9.96,24.57,4.85,7.53,11.39,13.26,19.61,17.19,1.53.49,2.81.41,3.86-.24,1.05-.64,1.79-1.48,2.24-2.52.45-1.04.55-2.14.31-3.31-.24-1.17-.88-1.98-1.92-2.42-6.90-3.16-12.38-7.96-16.46-14.41-4.08-6.44-6.86-13.48-8.34-21.11-1.48-7.62-1.73-15.30-.74-23,.99-7.71,3.04-14.40,6.15-20.08,2.07-3.83,4.61-7.09,7.64-9.79,3.03-2.70,6.15-4.18,9.38-4.44,3.46-.29,6.35.65,8.69,2.83,2.33,2.18,4.20,4.73,5.62,7.66,1.25,2.59,2.26,5.43,3.04,8.51.77,3.08,1.40,6.16,1.88,9.23.47,3.07.79,5.95.97,8.64.17,2.69.28,4.95.32,6.75-.12,5.46-.58,11.15-1.35,17.07-.78,5.92-1.92,11.84-3.42,17.75-1.50,5.92-3.42,11.68-5.76,17.30-2.34,5.62-5.03,10.72-8.06,15.30-3.14,4.72-6.44,8.40-9.90,11.05-3.46,2.65-6.92,4.33-10.37,5.05-3.46.71-6.82.48-10.08-.71-3.27-1.19-6.33-3.19-9.18-6.01-2.86-2.82-5.17-6.46-6.94-10.90-1.77-4.44-3.03-9.26-3.77-14.46-.74-5.20-1.07-10.65-.98-16.35.09-5.69.51-11.20,1.26-16.51.75-5.31,1.80-10.28,3.14-14.90,1.34-4.62,2.86-8.51,4.54-11.67.26-.65.56-1.26.89-1.86.33-.59.56-1.26.69-2.01.15-1.36-.25-2.59-1.21-3.71-.96-1.13-2.10-1.70-3.44-1.74-1.35-.15-2.39.22-3.09,1.11-.71.90-1.34,1.87-1.91,2.92-2.03,4.06-3.81,8.78-5.34,14.15-1.53,5.38-2.74,11-3.65,16.88-.91,5.88-1.43,11.92-1.56,18.10-.13,6.19.25,12.17,1.14,17.96.89,5.78,2.36,11.18,4.40,16.18ZM670.70,142.83c1.29-4.91,3.24-9.35,5.83-13.31,2.59-3.97,5.74-6.48,9.44-7.54,2.56-.64,4.30-.15,5.21,1.46.91,1.61,1.23,3.47.95,5.56-.59,4.81-2.62,8.65-6.10,11.55-3.48,2.90-7.26,5.20-11.35,6.92-1.97.55-3.22.28-3.75-.78-.53-1.07-.61-2.36-.23-3.87Z"/>
    <path d="M752.76,249.23c-.93-4.76-15.51-23.45-30.49-35.03-3.01-2.40-3.84-3.59-9.37-4.30-5.53-.71-37.26,6.09-37.26,6.09l.03.15-301.69,48.56c-21.94,3.53-43.88,7.04-65.83,10.53-17.84,2.84-35.94,5.88-53.80,9.05l-3.78.68c-13.86,2.53-28.19,5.16-40.23-1.70-9.73-5.54-16.16-15.39-17.27-26.40l.06-.02c-.04-.19-.08-.40-.12-.60l-.05-.70h-.09c-.41-2.11-.73-4.40-.93-6.88-.27-3.34-.43-6.88-.46-10.62-.03-3.74.07-7.56.31-11.47.33-6.45.87-12.76,1.61-18.92.74-6.16,1.42-11.52,2.05-16.09.28-2.09,1.16-4.41,2.64-6.93,1.48-2.52,3.04-4.39,4.66-5.61,2.14-1.78,4.49-3.80,7.04-6.08,2.55-2.26,5.01-4.73,7.38-7.39,2.37-2.66,4.50-5.47,6.41-8.42,1.90-2.96,3.34-5.96,4.32-9.01,1.06-3.31,1.38-6.35.95-9.13-.43-2.77-1.37-5.14-2.82-7.09-1.45-1.96-3.30-3.39-5.56-4.31-2.26-.92-4.63-1.19-7.10-.80-4.13.64-7.54,2.43-10.23,5.38-2.69,2.95-4.87,6.44-6.55,10.44-1.68,4.01-2.97,8.19-3.86,12.56-.90,4.37-1.63,8.23-2.20,11.58-.17,1.24.16,2.03,1,2.38.84.36,1.81.39,2.92.10,1.10-.29,2.19-.91,3.25-1.86,1.06-.95,1.79-2.12,2.18-3.51.42-2,.93-4.52,1.55-7.58.61-3.05,1.45-6.03,2.52-8.91,1.06-2.88,2.45-5.43,4.17-7.62s3.82-3.43,6.32-3.70c2.26-.23,4,.63,5.20,2.55,1.21,1.93,1.21,4.50.01,7.71-1.44,3.97-4.21,8.15-8.31,12.52-4.10,4.38-8.84,8.70-14.22,12.98-5.39,4.27-11.02,8.29-16.91,12.04-5.89,3.75-11.22,6.96-16.01,9.63-1.92.90-3.46.87-4.64-.10-1.18-.96-1.72-2.36-1.65-4.19.76-6.04,1.37-11.87,1.83-17.50.46-5.63,1.50-11.41,3.13-17.35.59-3.23,1.87-6.06,3.86-8.48,1.98-2.42,4.06-4.82,6.23-7.21.71-.84,1.05-1.82.99-2.96-.06-1.14-.45-2.11-1.17-2.90-.73-.79-1.65-1.31-2.78-1.56-1.13-.25-2.34.09-3.65,1.01-2.20,1.43-4.09,3.08-5.67,4.95-1.58,1.88-3.67,3.44-6.26,4.68-2.82,1.29-5.85,2.05-9.07,2.31-3.22.26-6.54.31-9.94.18-3.41-.14-6.85-.30-10.32-.50-3.47-.19-6.87-.08-10.20.31-3.68.45-7.09,1.43-10.25,2.94-3.15,1.51-5.89,3.51-8.23,5.99-2.34,2.48-4.19,5.33-5.57,8.56-1.38,3.24-2.07,6.73-2.10,10.48-.14,5.34,1.07,9.87,3.64,13.58,2.57,3.72,5.78,6.30,9.63,7.76,3.85,1.46,8,1.72,12.45.80,4.45-.93,8.54-3.37,12.28-7.33.94-.99,1.35-2.02,1.25-3.09-.11-1.07-.51-1.94-1.22-2.62-.71-.68-1.59-1.06-2.63-1.14-1.04-.08-2.04.31-2.99,1.18-2.60,2.70-5.34,4.39-8.19,5.08-2.86.68-5.45.51-7.79-.52-2.33-1.03-4.24-2.79-5.71-5.29-1.47-2.49-2.12-5.50-1.94-9.04.38-5.37,2.20-9.86,5.45-13.44,3.26-3.58,7.57-5.61,12.93-6.07,4.31-.30,9.07-.16,14.30.42,5.23.59,10.24.75,15.03.49,3.23-.25,5.31.15,6.26,1.21.95,1.06,1.16,3.02.64,5.88-.51,2.98-.92,5.76-1.25,8.36-.33,2.59-.64,5.11-.92,7.57-.29,2.46-.57,4.98-.83,7.56-.27,2.58-.59,5.41-.96,8.49-.10,1.71-.84,4.14-2.22,7.32-1.39,3.18-3.42,5.82-6.12,7.93-3.15,2.30-6.44,4.48-9.87,6.51-3.43,2.04-6.87,4.41-10.32,7.12-8.41,6.61-14.85,13.20-19.34,19.75-4.49,6.56-7.45,12.64-8.88,18.23-1.43,5.60-1.49,10.50-.18,14.71,1.31,4.21,3.50,7.23,6.56,9.05,4,2.41,8.68,2.98,14.05,1.73,5.37-1.25,10.74-4.40,16.12-9.47,5.38-5.06,10.40-12.12,15.04-21.18,4.65-9.06,8.30-20.26,10.95-33.60.33-1.74.09-2.94-.74-3.60-.83-.66-1.83-.89-3.01-.71-1.18.18-2.37.73-3.55,1.64-1.19.91-1.92,2.05-2.19,3.42-2.33,10.75-5.35,19.77-9.06,27.05-3.71,7.28-7.50,13.06-11.37,17.35-3.87,4.29-7.58,7.09-11.12,8.42-3.54,1.33-6.38,1.37-8.50.13-1.85-1.05-3.04-3.07-3.57-6.07-.52-3-.10-6.54,1.26-10.62,1.37-4.08,3.78-8.56,7.26-13.45,3.47-4.89,8.29-9.74,14.43-14.56,3.67-2.86,7.81-5.80,12.42-8.81,4.61-3.01,9.43-6.02,14.47-9.03,5.03-3.01,10.07-6,15.11-8.95,5.04-2.95,9.89-5.81,14.54-8.59,1.01-.52,2.16-.48,3.46.10,1.30.59,1.82,1.62,1.57,3.11-.68,4.22-1.33,9-1.96,14.35-.62,5.36-1.07,11.08-1.34,17.16-.30,7.42-.16,14.59.42,21.51.28,3.30.75,6.34,1.39,9.15,1.78,13.51,9.81,25.50,21.80,32.32,7.40,4.21,15.23,5.60,23.05,5.60s16.01-1.46,23.50-2.83l3.74-.68c17.80-3.16,35.84-6.19,53.63-9.02,21.95-3.49,43.90-7,65.85-10.53l310.99-50.06-.04-.26,8.40-1.35s6.23-1.82,9.13,6.14c2.90,7.96,16,37.42,19.06,42.36,3.06,4.94,6.49,4.87,9.37,4.30,2.88-.56,12.63-5.02,16.72-10.15,4.08-5.14,4.60-10.92,3.67-15.68Z"/>
  </g>
</svg>
